<svg width="96" height="106" viewBox="0 0 96 106" fill="none" xmlns="http://www.w3.org/2000/svg">
<g clip-path="url(#clip0_1_1008)">
<path d="M85.7 105.9H10.1C8.77258 105.904 7.45744 105.646 6.23026 105.139C5.00308 104.633 3.8881 103.889 2.94943 102.951C2.01077 102.012 1.26696 100.897 0.760795 99.6699C0.254625 98.4427 -0.0039158 97.1276 4.48249e-05 95.8001L0.100045 10.0001C0.106595 8.68034 0.373036 7.37476 0.884157 6.15794C1.39528 4.94113 2.14107 3.8369 3.07894 2.90831C4.01682 1.97972 5.12841 1.24496 6.35025 0.745968C7.57209 0.24698 8.88026 -0.00645744 10.2 0.000125006H85.8C88.4755 0.0106584 91.0383 1.07814 92.9302 2.96998C94.822 4.86182 95.8895 7.42468 95.9 10.1001L95.8 95.9001C95.7532 98.5549 94.6709 101.086 92.7841 102.954C90.8972 104.823 88.3552 105.88 85.7 105.9Z" fill="black"/>
<path d="M23.2 17.4C18.7 23.6 12.4 28.8 4.50001 33L2.70001 33.8V46.6L16.4 39.1V87.1H29.3V17H23.4L23.2 17.4Z" fill="white"/>
<path d="M65.5 50.2C67.4431 48.5392 69.0693 46.5403 70.3 44.3C72.0031 41.5225 72.967 38.3554 73.1 35.1C73.1 29.6 71.4 25.2 68.1 21.9C64.8 18.6 60.1 17 54.2 17C48.7 17 44.2 18.6 40.7 21.9C37.2 25.2 35.4 29.6 35.4 35.1C35.4539 38.143 36.243 41.1279 37.7 43.8C38.8709 46.1097 40.4652 48.1789 42.4 49.9C39.7947 51.8469 37.6449 54.338 36.1 57.2C34.2409 60.39 33.2416 64.008 33.2 67.7C33.2 74.5 35 79.8 38.7 83.5C42.4 87.2 47.5 89 54.1 89C60.7 89 65.9 87.1 69.7 83.4C73.5 79.7 75.5 74.4 75.5 67.7C75.5 64.4 74.3 60.9 72 57.2C70.3375 54.4447 68.1248 52.0618 65.5 50.2ZM54.2 29.2C55.8036 29.1259 57.3757 29.6618 58.6 30.7C59.1459 31.2281 59.5714 31.8678 59.8476 32.5753C60.1237 33.2829 60.2439 34.0417 60.2 34.8C60.0893 36.713 59.5051 38.5685 58.5 40.2C57.7519 41.7339 56.6139 43.0443 55.2 44C53.4167 43.0706 51.8493 41.7758 50.6 40.2C49.2515 38.7076 48.4417 36.8064 48.3 34.8C48.2 31 50.1 29.2 54.2 29.2ZM60.1 74.4C59.2627 75.1575 58.2839 75.7418 57.2198 76.1194C56.1557 76.497 55.0275 76.6603 53.9 76.6C52.8223 76.6443 51.7488 76.4421 50.761 76.0089C49.7733 75.5757 48.8974 74.9228 48.2 74.1C46.6655 72.2534 45.8804 69.898 46 67.5C46 62.8 48.3 58.9 53 55.8C59.3 60 62.5 64.2 62.5 68.4C62.5593 69.5143 62.3753 70.6282 61.9608 71.6643C61.5464 72.7004 60.9114 73.6339 60.1 74.4Z" fill="white"/>
<path d="M93.1 49.7999H84.5V41.3999H80.1V49.7999H71.6V54.1999H80.1V62.6999H84.5V54.1999H93.1V49.7999Z" fill="white"/>
</g>
<defs>
<clipPath id="clip0_1_1008">
<rect width="95.9" height="105.9" fill="white"/>
</clipPath>
</defs>
</svg>
