<svg width="251" height="108" viewBox="0 0 251 108" fill="none" xmlns="http://www.w3.org/2000/svg">
<g clip-path="url(#clip0_1_955)">
<path fill-rule="evenodd" clip-rule="evenodd" d="M25.7515 47.5598L24.2373 43.4748H24.0395L22.5253 47.5598H25.7515ZM21.5884 50.2192L20.7369 52.4974C20.6971 52.6431 20.6081 52.7701 20.4851 52.8569C20.3621 52.9438 20.2129 52.9849 20.0629 52.9733H17.7107C17.4253 52.9733 17.3129 52.7816 17.4253 52.4974L22.0602 40.15C22.1216 40.0018 22.2276 39.8764 22.3633 39.7916C22.499 39.7066 22.6578 39.6664 22.8174 39.6764H25.5605C25.7103 39.6637 25.8598 39.7041 25.983 39.7907C26.1061 39.8772 26.1952 40.0044 26.2346 40.15L30.8718 52.4974C30.9841 52.7816 30.8718 52.9733 30.5864 52.9733H28.2093C28.0616 52.9822 27.9152 52.9397 27.7951 52.853C27.6747 52.7663 27.5878 52.6408 27.5489 52.4974L26.6974 50.2192H21.5884Z" fill="white"/>
<path fill-rule="evenodd" clip-rule="evenodd" d="M41.3189 42.3361V46.4188H45.765C46.439 46.4188 46.8075 46.0398 46.8075 45.3744V43.3804C46.8075 42.715 46.4278 42.3361 45.765 42.3361H41.3189ZM41.3189 49.0781V52.4977C41.3223 52.561 41.3126 52.6243 41.2902 52.6835C41.2678 52.7427 41.2332 52.7965 41.1887 52.8414C41.1442 52.8862 41.0908 52.9213 41.0319 52.944C40.973 52.9669 40.91 52.9769 40.847 52.9736H38.7643C38.7013 52.9769 38.6384 52.9669 38.5795 52.944C38.5206 52.9213 38.4671 52.8862 38.4227 52.8414C38.3781 52.7965 38.3436 52.7427 38.3211 52.6835C38.2987 52.6243 38.289 52.561 38.2925 52.4977V40.1503C38.289 40.0871 38.2987 40.0238 38.3211 39.9646C38.3436 39.9054 38.3781 39.8516 38.4227 39.8067C38.4671 39.7618 38.5206 39.7268 38.5795 39.704C38.6384 39.6813 38.7013 39.6712 38.7643 39.6744H46.5222C48.6992 39.6744 49.8338 40.8158 49.8338 42.9992V45.7534C49.8338 47.9391 48.6992 49.0781 46.5222 49.0781H41.3189Z" fill="white"/>
<path fill-rule="evenodd" clip-rule="evenodd" d="M61.1833 50.3143H68.6558C68.7186 50.3108 68.7815 50.3205 68.8406 50.343C68.8998 50.3656 68.9535 50.4002 68.9981 50.445C69.0427 50.4896 69.0777 50.5432 69.1002 50.6024C69.1228 50.6615 69.133 50.7247 69.1298 50.788V52.4978C69.1336 52.5612 69.1234 52.6247 69.1008 52.6841C69.0782 52.7435 69.0438 52.7974 68.9987 52.8423C68.9541 52.8872 68.9003 52.9221 68.8412 52.9448C68.7821 52.9675 68.7192 52.9773 68.6558 52.9737H58.6378C58.5749 52.977 58.5115 52.9669 58.4529 52.9441C58.3938 52.9213 58.3406 52.8863 58.296 52.8414C58.2513 52.7965 58.2169 52.7427 58.1944 52.6835C58.1723 52.6243 58.1627 52.561 58.1659 52.4978V40.1504C58.1627 40.0873 58.1729 40.0243 58.1955 39.9654C58.218 39.9064 58.2524 39.8529 58.297 39.8082C58.3416 39.7636 58.3949 39.7289 58.4534 39.7062C58.512 39.6835 58.5749 39.6735 58.6378 39.6768H68.4762C68.5391 39.6731 68.602 39.683 68.6611 39.7054C68.7203 39.7279 68.7735 39.7627 68.8181 39.8073C68.8632 39.852 68.8976 39.9057 68.9207 39.9648C68.9433 40.0239 68.9535 40.0872 68.9503 40.1504V41.8601C68.9535 41.9236 68.9438 41.9871 68.9213 42.0464C68.8987 42.1058 68.8638 42.1597 68.8191 42.2047C68.7745 42.2496 68.7208 42.2846 68.6617 42.3072C68.6025 42.3298 68.5391 42.3398 68.4762 42.3361H61.1833V44.8986H66.7638C66.8273 44.8949 66.8907 44.9048 66.9498 44.9274C67.0089 44.95 67.0627 44.985 67.1073 45.0299C67.1519 45.0749 67.1868 45.1288 67.2094 45.1882C67.232 45.2476 67.2417 45.311 67.2379 45.3745V47.0842C67.2411 47.1474 67.2314 47.2107 67.2083 47.2699C67.1858 47.3289 67.1508 47.3826 67.1062 47.4273C67.0616 47.4719 67.0079 47.5066 66.9493 47.5292C66.8902 47.5516 66.8273 47.5615 66.7638 47.5579H61.1833V50.3143Z" fill="white"/>
<path fill-rule="evenodd" clip-rule="evenodd" d="M81.9018 43.665L84.1705 40.1507C84.3618 39.8665 84.5505 39.6748 84.9278 39.6748H87.3969C87.6802 39.6748 87.871 39.8665 87.6802 40.1507L83.7077 45.9454L88.1542 52.4981C88.3429 52.7823 88.1542 52.9741 87.871 52.9741H85.4018C85.0224 52.9741 84.8337 52.7823 84.6445 52.4981L81.9018 48.3184H81.7104L78.9672 52.4981C78.7785 52.7823 78.5899 52.9741 78.2104 52.9741H75.7526C75.4672 52.9741 75.2785 52.7823 75.4672 52.4981L79.9131 45.9454L75.9391 40.1507C75.7499 39.8665 75.9391 39.6748 76.2218 39.6748H78.6931C79.0731 39.6748 79.2617 39.8665 79.4504 40.1507L81.7196 43.665H81.9018Z" fill="white"/>
<path fill-rule="evenodd" clip-rule="evenodd" d="M108.102 50.3143H115.196C115.26 50.3108 115.323 50.3205 115.382 50.343C115.441 50.3656 115.494 50.4002 115.539 50.445C115.584 50.4896 115.619 50.5432 115.641 50.6024C115.664 50.6615 115.674 50.7247 115.671 50.788V52.4978C115.674 52.5612 115.664 52.6247 115.642 52.6841C115.62 52.7435 115.585 52.7974 115.54 52.8423C115.495 52.8872 115.441 52.9221 115.382 52.9448C115.323 52.9675 115.26 52.9773 115.196 52.9737H105.547C105.484 52.977 105.421 52.9669 105.362 52.9441C105.303 52.9213 105.25 52.8863 105.206 52.8414C105.161 52.7965 105.127 52.7427 105.104 52.6835C105.082 52.6243 105.072 52.561 105.075 52.4978V40.1504C105.072 40.0873 105.082 40.0243 105.104 39.9654C105.128 39.9064 105.161 39.8529 105.207 39.8082C105.251 39.7636 105.304 39.7289 105.362 39.7062C105.422 39.6835 105.484 39.6735 105.547 39.6768H107.628C107.691 39.6731 107.753 39.683 107.812 39.7054C107.871 39.7279 107.925 39.7627 107.97 39.8073C108.014 39.852 108.049 39.9057 108.072 39.9648C108.095 40.0239 108.105 40.0872 108.102 40.1504V50.3143Z" fill="white"/>
<path fill-rule="evenodd" clip-rule="evenodd" d="M126.072 50.3143H133.547C133.61 50.311 133.673 50.3211 133.731 50.3437C133.79 50.3664 133.843 50.4012 133.888 50.4459C133.932 50.4905 133.967 50.544 133.989 50.6029C134.013 50.6619 134.022 50.7249 134.019 50.788V52.4978C134.022 52.561 134.013 52.6243 133.99 52.6835C133.967 52.7427 133.934 52.7965 133.889 52.8414C133.844 52.8863 133.791 52.9213 133.732 52.9441C133.673 52.9669 133.61 52.977 133.547 52.9737H123.52C123.457 52.9773 123.393 52.9675 123.334 52.9448C123.275 52.9221 123.221 52.8872 123.178 52.8423C123.132 52.7974 123.098 52.7435 123.075 52.6841C123.052 52.6247 123.043 52.5612 123.046 52.4978V40.1504C123.043 40.0872 123.053 40.0239 123.075 39.9648C123.099 39.9057 123.134 39.852 123.178 39.8073C123.222 39.7627 123.276 39.7279 123.335 39.7054C123.394 39.683 123.457 39.6731 123.52 39.6768H133.358C133.421 39.6735 133.484 39.6835 133.543 39.7062C133.601 39.7289 133.655 39.7636 133.699 39.8082C133.744 39.8529 133.779 39.9064 133.801 39.9654C133.823 40.0243 133.833 40.0873 133.83 40.1504V41.8601C133.834 41.9234 133.824 41.9867 133.802 42.0459C133.779 42.1051 133.744 42.1589 133.7 42.2038C133.656 42.2488 133.602 42.2837 133.544 42.3066C133.485 42.3293 133.422 42.3394 133.358 42.3361H126.072V44.8986H131.656C131.719 44.8952 131.781 44.9054 131.841 44.9282C131.899 44.9509 131.952 44.9859 131.998 45.0309C132.041 45.0757 132.076 45.1295 132.099 45.1887C132.121 45.2479 132.131 45.3112 132.127 45.3745V47.0842C132.13 47.1473 132.12 47.2104 132.097 47.2692C132.075 47.3282 132.041 47.3817 131.996 47.4264C131.951 47.471 131.899 47.5058 131.84 47.5284C131.781 47.5511 131.719 47.5612 131.656 47.5579H126.072V50.3143Z" fill="white"/>
<path fill-rule="evenodd" clip-rule="evenodd" d="M153.695 49.8496C153.695 52.033 152.559 53.1743 150.384 53.1743H144.897C142.72 53.1743 141.586 52.033 141.586 49.8496V42.8096C141.586 40.6262 142.709 39.4849 144.897 39.4849H150.384C152.559 39.4849 153.695 40.6262 153.695 42.8096V43.7592C153.699 43.8227 153.689 43.8862 153.666 43.9456C153.644 44.0049 153.609 44.0588 153.564 44.1039C153.52 44.1487 153.466 44.1837 153.407 44.2064C153.348 44.2289 153.285 44.2389 153.221 44.2352H151.14C151.078 44.2389 151.014 44.2289 150.955 44.2064C150.897 44.1837 150.843 44.1487 150.798 44.1039C150.753 44.0588 150.718 44.0049 150.696 43.9456C150.673 43.8862 150.663 43.8227 150.667 43.7592V43.1909C150.667 42.5254 150.29 42.1443 149.626 42.1443H145.653C144.992 42.1443 144.611 42.5254 144.611 43.1909V49.4593C144.611 50.1224 144.992 50.5037 145.653 50.5037H149.629C150.303 50.5037 150.669 50.1224 150.669 49.4593V48.2231H148.198C148.135 48.2264 148.072 48.2164 148.014 48.1937C147.955 48.171 147.901 48.1363 147.857 48.0917C147.813 48.047 147.778 47.9935 147.756 47.9345C147.733 47.8756 147.722 47.8126 147.726 47.7495V46.0398C147.722 45.9765 147.732 45.9132 147.755 45.854C147.777 45.7948 147.811 45.7409 147.856 45.6961C147.901 45.6512 147.953 45.6162 148.013 45.5934C148.072 45.5706 148.135 45.5605 148.198 45.5638H153.224C153.286 45.5602 153.35 45.57 153.409 45.5927C153.469 45.6153 153.522 45.6502 153.567 45.6952C153.612 45.7401 153.646 45.7941 153.668 45.8535C153.692 45.9128 153.701 45.9763 153.698 46.0398L153.695 49.8496Z" fill="white"/>
<path fill-rule="evenodd" clip-rule="evenodd" d="M165.235 50.3145H172.707C172.77 50.3109 172.833 50.3207 172.892 50.3432C172.951 50.3657 173.004 50.4005 173.049 50.4451C173.094 50.4898 173.129 50.5435 173.151 50.6026C173.174 50.6616 173.185 50.7249 173.181 50.7882V52.4979C173.185 52.5613 173.174 52.6249 173.152 52.6842C173.13 52.7436 173.095 52.7975 173.05 52.8424C173.005 52.8874 172.951 52.9223 172.892 52.9449C172.833 52.9676 172.77 52.9775 172.707 52.9739H162.68C162.616 52.9775 162.553 52.9676 162.494 52.9449C162.435 52.9223 162.381 52.8874 162.337 52.8424C162.292 52.7975 162.257 52.7436 162.235 52.6842C162.212 52.6249 162.202 52.5613 162.206 52.4979V40.1505C162.202 40.0873 162.213 40.0241 162.235 39.965C162.258 39.9058 162.293 39.8522 162.337 39.8075C162.382 39.7628 162.436 39.7282 162.495 39.7055C162.553 39.6831 162.617 39.6734 162.68 39.6769H172.518C172.581 39.673 172.645 39.6825 172.704 39.7048C172.763 39.7273 172.817 39.7619 172.862 39.8066C172.907 39.8513 172.942 39.9051 172.965 39.9644C172.988 40.0236 172.998 40.0871 172.994 40.1505V41.8604C172.998 41.9238 172.988 41.9873 172.966 42.0467C172.943 42.1061 172.908 42.16 172.863 42.2049C172.819 42.2498 172.765 42.2847 172.706 42.3074C172.647 42.3301 172.584 42.3399 172.52 42.3363H165.235V44.8987H170.815C170.879 44.8951 170.942 44.9049 171.001 44.9276C171.06 44.9502 171.114 44.9851 171.158 45.0301C171.203 45.075 171.238 45.129 171.26 45.1883C171.283 45.2477 171.293 45.3112 171.289 45.3746V47.0844C171.293 47.1477 171.282 47.2108 171.26 47.27C171.237 47.3291 171.202 47.3827 171.158 47.4274C171.113 47.4721 171.059 47.5069 171 47.5293C170.942 47.5519 170.878 47.5617 170.815 47.5581H165.235V50.3145Z" fill="white"/>
<path fill-rule="evenodd" clip-rule="evenodd" d="M190.018 48.318V40.1504C190.015 40.0873 190.025 40.0242 190.048 39.9654C190.07 39.9064 190.104 39.8529 190.149 39.8082C190.194 39.7636 190.247 39.7287 190.306 39.7062C190.364 39.6835 190.427 39.6734 190.49 39.6766H192.573C192.636 39.6734 192.699 39.6835 192.757 39.7062C192.816 39.7287 192.869 39.7636 192.914 39.8082C192.958 39.8529 192.993 39.9064 193.015 39.9654C193.038 40.0242 193.047 40.0873 193.045 40.1504V52.4978C193.049 52.561 193.038 52.6242 193.016 52.6834C192.994 52.7427 192.959 52.7965 192.915 52.8414C192.87 52.8863 192.816 52.9212 192.758 52.9441C192.699 52.9668 192.636 52.9769 192.573 52.9737H190.018C189.641 52.9737 189.45 52.7841 189.261 52.4978L184.152 44.3301H183.964V52.4978C183.967 52.561 183.958 52.6242 183.935 52.6834C183.913 52.7427 183.878 52.7965 183.833 52.8414C183.789 52.8863 183.735 52.9212 183.676 52.9441C183.618 52.9668 183.555 52.9769 183.492 52.9737H181.409C181.346 52.9769 181.283 52.9668 181.225 52.9441C181.166 52.9212 181.111 52.8863 181.068 52.8414C181.023 52.7965 180.989 52.7427 180.966 52.6834C180.944 52.6242 180.934 52.561 180.938 52.4978V40.1504C180.934 40.0873 180.944 40.0242 180.966 39.9654C180.99 39.9064 181.024 39.8529 181.068 39.8082C181.112 39.7636 181.166 39.7287 181.225 39.7062C181.284 39.6835 181.346 39.6734 181.409 39.6766H183.964C184.343 39.6766 184.532 39.8662 184.72 40.1504L189.829 48.318H190.018Z" fill="white"/>
<path fill-rule="evenodd" clip-rule="evenodd" d="M204.774 50.3143H209.786C210.46 50.3143 210.829 49.9331 210.829 49.2677V43.3805C210.829 42.7151 210.449 42.3361 209.786 42.3361H204.774V50.3143ZM210.546 39.6768C212.721 39.6768 213.855 40.8045 213.855 42.9993V49.6489C213.855 51.8323 212.731 52.9737 210.546 52.9737H202.219C202.157 52.9773 202.093 52.9675 202.034 52.9448C201.974 52.9221 201.921 52.8872 201.877 52.8423C201.832 52.7974 201.797 52.7435 201.774 52.6841C201.751 52.6247 201.742 52.5612 201.746 52.4978V40.1504C201.742 40.0872 201.752 40.0239 201.774 39.9648C201.798 39.9057 201.833 39.852 201.878 39.8073C201.922 39.7627 201.975 39.7279 202.035 39.7054C202.094 39.683 202.157 39.6731 202.219 39.6768H210.546Z" fill="white"/>
<path fill-rule="evenodd" clip-rule="evenodd" d="M230.409 49.0781C230.409 48.6044 230.124 48.2999 229.558 48.1285L224.355 46.5134C222.84 46.0398 222.083 45.2796 222.083 43.6646V42.8096C222.083 40.6262 223.206 39.4849 225.394 39.4849H229.935C232.112 39.4849 233.246 40.6262 233.246 42.8096V43.7592C233.25 43.8227 233.24 43.8862 233.218 43.9456C233.195 44.0049 233.16 44.0588 233.116 44.1039C233.07 44.1487 233.017 44.1837 232.959 44.2064C232.9 44.2289 232.836 44.2389 232.772 44.2352H230.692C230.629 44.2389 230.566 44.2289 230.507 44.2064C230.448 44.1837 230.394 44.1487 230.349 44.1039C230.304 44.0588 230.269 44.0049 230.247 43.9456C230.224 43.8862 230.214 43.8227 230.218 43.7592V43.1909C230.218 42.5254 229.841 42.1443 229.178 42.1443H226.152C225.478 42.1443 225.111 42.5254 225.111 43.1909V43.3804C225.111 43.854 225.394 44.1586 225.96 44.33L231.167 45.945C232.678 46.4186 233.435 47.1788 233.435 48.7938V49.8496C233.435 52.033 232.312 53.1743 230.124 53.1743H225.119C222.941 53.1743 221.806 52.033 221.806 49.8496V48.8999C221.802 48.8366 221.813 48.7733 221.835 48.7141C221.857 48.655 221.892 48.6011 221.937 48.5562C221.981 48.5113 222.034 48.4763 222.094 48.4536C222.152 48.4308 222.215 48.4207 222.279 48.424H224.361C224.424 48.4207 224.488 48.4308 224.546 48.4536C224.605 48.4763 224.658 48.5113 224.702 48.5562C224.747 48.6011 224.782 48.655 224.804 48.7141C224.826 48.7733 224.836 48.8366 224.833 48.8999V49.4705C224.833 50.1338 225.213 50.5149 225.873 50.5149H229.375C230.036 50.5149 230.415 50.1338 230.415 49.4705L230.409 49.0781Z" fill="white"/>
<path fill-rule="evenodd" clip-rule="evenodd" d="M25.7515 47.5598L24.2373 43.4748H24.0395L22.5253 47.5598H25.7515ZM21.5884 50.2192L20.7369 52.4974C20.6971 52.6431 20.6081 52.7701 20.4851 52.8569C20.3621 52.9438 20.2129 52.9849 20.0629 52.9733H17.7107C17.4253 52.9733 17.3129 52.7816 17.4253 52.4974L22.0602 40.15C22.1216 40.0018 22.2276 39.8764 22.3633 39.7916C22.499 39.7066 22.6578 39.6664 22.8174 39.6764H25.5605C25.7103 39.6637 25.8598 39.7041 25.983 39.7907C26.1061 39.8772 26.1952 40.0044 26.2346 40.15L30.8718 52.4974C30.9841 52.7816 30.8718 52.9733 30.5864 52.9733H28.2093C28.0616 52.9822 27.9152 52.9397 27.7951 52.853C27.6747 52.7663 27.5878 52.6408 27.5489 52.4974L26.6974 50.2192H21.5884Z" fill="white"/>
<path fill-rule="evenodd" clip-rule="evenodd" d="M41.3189 42.3361V46.4188H45.765C46.439 46.4188 46.8075 46.0398 46.8075 45.3744V43.3804C46.8075 42.715 46.4278 42.3361 45.765 42.3361H41.3189ZM41.3189 49.0781V52.4977C41.3223 52.561 41.3126 52.6243 41.2902 52.6835C41.2678 52.7427 41.2332 52.7965 41.1887 52.8414C41.1442 52.8862 41.0908 52.9213 41.0319 52.944C40.973 52.9669 40.91 52.9769 40.847 52.9736H38.7643C38.7013 52.9769 38.6384 52.9669 38.5795 52.944C38.5206 52.9213 38.4671 52.8862 38.4227 52.8414C38.3781 52.7965 38.3436 52.7427 38.3211 52.6835C38.2987 52.6243 38.289 52.561 38.2925 52.4977V40.1503C38.289 40.0871 38.2987 40.0238 38.3211 39.9646C38.3436 39.9054 38.3781 39.8516 38.4227 39.8067C38.4671 39.7618 38.5206 39.7268 38.5795 39.704C38.6384 39.6813 38.7013 39.6712 38.7643 39.6744H46.5222C48.6992 39.6744 49.8338 40.8158 49.8338 42.9992V45.7534C49.8338 47.9391 48.6992 49.0781 46.5222 49.0781H41.3189Z" fill="white"/>
<path fill-rule="evenodd" clip-rule="evenodd" d="M61.1833 50.3143H68.6558C68.7186 50.3108 68.7815 50.3205 68.8406 50.343C68.8998 50.3656 68.9535 50.4002 68.9981 50.445C69.0427 50.4896 69.0777 50.5432 69.1002 50.6024C69.1228 50.6615 69.133 50.7247 69.1298 50.788V52.4978C69.1336 52.5612 69.1234 52.6247 69.1008 52.6841C69.0782 52.7435 69.0438 52.7974 68.9987 52.8423C68.9541 52.8872 68.9003 52.9221 68.8412 52.9448C68.7821 52.9675 68.7192 52.9773 68.6558 52.9737H58.6378C58.5749 52.977 58.5115 52.9669 58.4529 52.9441C58.3938 52.9213 58.3406 52.8863 58.296 52.8414C58.2513 52.7965 58.2169 52.7427 58.1944 52.6835C58.1723 52.6243 58.1627 52.561 58.1659 52.4978V40.1504C58.1627 40.0873 58.1729 40.0243 58.1955 39.9654C58.218 39.9064 58.2524 39.8529 58.297 39.8082C58.3416 39.7636 58.3949 39.7289 58.4534 39.7062C58.512 39.6835 58.5749 39.6735 58.6378 39.6768H68.4762C68.5391 39.6731 68.602 39.683 68.6611 39.7054C68.7203 39.7279 68.7735 39.7627 68.8181 39.8073C68.8632 39.852 68.8976 39.9057 68.9207 39.9648C68.9433 40.0239 68.9535 40.0872 68.9503 40.1504V41.8601C68.9535 41.9236 68.9438 41.9871 68.9213 42.0464C68.8987 42.1058 68.8638 42.1597 68.8191 42.2047C68.7745 42.2496 68.7208 42.2846 68.6617 42.3072C68.6025 42.3298 68.5391 42.3398 68.4762 42.3361H61.1833V44.8986H66.7638C66.8273 44.8949 66.8907 44.9048 66.9498 44.9274C67.0089 44.95 67.0627 44.985 67.1073 45.0299C67.1519 45.0749 67.1868 45.1288 67.2094 45.1882C67.232 45.2476 67.2417 45.311 67.2379 45.3745V47.0842C67.2411 47.1474 67.2314 47.2107 67.2083 47.2699C67.1858 47.3289 67.1508 47.3826 67.1062 47.4273C67.0616 47.4719 67.0079 47.5066 66.9493 47.5292C66.8902 47.5516 66.8273 47.5615 66.7638 47.5579H61.1833V50.3143Z" fill="white"/>
<path fill-rule="evenodd" clip-rule="evenodd" d="M81.9018 43.665L84.1705 40.1507C84.3618 39.8665 84.5505 39.6748 84.9278 39.6748H87.3969C87.6802 39.6748 87.871 39.8665 87.6802 40.1507L83.7077 45.9454L88.1542 52.4981C88.3429 52.7823 88.1542 52.9741 87.871 52.9741H85.4018C85.0224 52.9741 84.8337 52.7823 84.6445 52.4981L81.9018 48.3184H81.7104L78.9672 52.4981C78.7785 52.7823 78.5899 52.9741 78.2104 52.9741H75.7526C75.4672 52.9741 75.2785 52.7823 75.4672 52.4981L79.9131 45.9454L75.9391 40.1507C75.7499 39.8665 75.9391 39.6748 76.2218 39.6748H78.6931C79.0731 39.6748 79.2617 39.8665 79.4504 40.1507L81.7196 43.665H81.9018Z" fill="white"/>
<path fill-rule="evenodd" clip-rule="evenodd" d="M108.102 50.3143H115.196C115.26 50.3108 115.323 50.3205 115.382 50.343C115.441 50.3656 115.494 50.4002 115.539 50.445C115.584 50.4896 115.619 50.5432 115.641 50.6024C115.664 50.6615 115.674 50.7247 115.671 50.788V52.4978C115.674 52.5612 115.664 52.6247 115.642 52.6841C115.62 52.7435 115.585 52.7974 115.54 52.8423C115.495 52.8872 115.441 52.9221 115.382 52.9448C115.323 52.9675 115.26 52.9773 115.196 52.9737H105.547C105.484 52.977 105.421 52.9669 105.362 52.9441C105.303 52.9213 105.25 52.8863 105.206 52.8414C105.161 52.7965 105.127 52.7427 105.104 52.6835C105.082 52.6243 105.072 52.561 105.075 52.4978V40.1504C105.072 40.0873 105.082 40.0243 105.104 39.9654C105.128 39.9064 105.161 39.8529 105.207 39.8082C105.251 39.7636 105.304 39.7289 105.362 39.7062C105.422 39.6835 105.484 39.6735 105.547 39.6768H107.628C107.691 39.6731 107.753 39.683 107.812 39.7054C107.871 39.7279 107.925 39.7627 107.97 39.8073C108.014 39.852 108.049 39.9057 108.072 39.9648C108.095 40.0239 108.105 40.0872 108.102 40.1504V50.3143Z" fill="white"/>
<path fill-rule="evenodd" clip-rule="evenodd" d="M126.072 50.3143H133.547C133.61 50.311 133.673 50.3211 133.731 50.3437C133.79 50.3664 133.843 50.4012 133.888 50.4459C133.932 50.4905 133.967 50.544 133.989 50.6029C134.013 50.6619 134.022 50.7249 134.019 50.788V52.4978C134.022 52.561 134.013 52.6243 133.99 52.6835C133.967 52.7427 133.934 52.7965 133.889 52.8414C133.844 52.8863 133.791 52.9213 133.732 52.9441C133.673 52.9669 133.61 52.977 133.547 52.9737H123.52C123.457 52.9773 123.393 52.9675 123.334 52.9448C123.275 52.9221 123.221 52.8872 123.178 52.8423C123.132 52.7974 123.098 52.7435 123.075 52.6841C123.052 52.6247 123.043 52.5612 123.046 52.4978V40.1504C123.043 40.0872 123.053 40.0239 123.075 39.9648C123.099 39.9057 123.134 39.852 123.178 39.8073C123.222 39.7627 123.276 39.7279 123.335 39.7054C123.394 39.683 123.457 39.6731 123.52 39.6768H133.358C133.421 39.6735 133.484 39.6835 133.543 39.7062C133.601 39.7289 133.655 39.7636 133.699 39.8082C133.744 39.8529 133.779 39.9064 133.801 39.9654C133.823 40.0243 133.833 40.0873 133.83 40.1504V41.8601C133.834 41.9234 133.824 41.9867 133.802 42.0459C133.779 42.1051 133.744 42.1589 133.7 42.2038C133.656 42.2488 133.602 42.2837 133.544 42.3066C133.485 42.3293 133.422 42.3394 133.358 42.3361H126.072V44.8986H131.656C131.719 44.8952 131.781 44.9054 131.841 44.9282C131.899 44.9509 131.952 44.9859 131.998 45.0309C132.041 45.0757 132.076 45.1295 132.099 45.1887C132.121 45.2479 132.131 45.3112 132.127 45.3745V47.0842C132.13 47.1473 132.12 47.2104 132.097 47.2692C132.075 47.3282 132.041 47.3817 131.996 47.4264C131.951 47.471 131.899 47.5058 131.84 47.5284C131.781 47.5511 131.719 47.5612 131.656 47.5579H126.072V50.3143Z" fill="white"/>
<path fill-rule="evenodd" clip-rule="evenodd" d="M153.695 49.8496C153.695 52.033 152.559 53.1743 150.384 53.1743H144.897C142.72 53.1743 141.586 52.033 141.586 49.8496V42.8096C141.586 40.6262 142.709 39.4849 144.897 39.4849H150.384C152.559 39.4849 153.695 40.6262 153.695 42.8096V43.7592C153.699 43.8227 153.689 43.8862 153.666 43.9456C153.644 44.0049 153.609 44.0588 153.564 44.1039C153.52 44.1487 153.466 44.1837 153.407 44.2064C153.348 44.2289 153.285 44.2389 153.221 44.2352H151.14C151.078 44.2389 151.014 44.2289 150.955 44.2064C150.897 44.1837 150.843 44.1487 150.798 44.1039C150.753 44.0588 150.718 44.0049 150.696 43.9456C150.673 43.8862 150.663 43.8227 150.667 43.7592V43.1909C150.667 42.5254 150.29 42.1443 149.626 42.1443H145.653C144.992 42.1443 144.611 42.5254 144.611 43.1909V49.4593C144.611 50.1224 144.992 50.5037 145.653 50.5037H149.629C150.303 50.5037 150.669 50.1224 150.669 49.4593V48.2231H148.198C148.135 48.2264 148.072 48.2164 148.014 48.1937C147.955 48.171 147.901 48.1363 147.857 48.0917C147.813 48.047 147.778 47.9935 147.756 47.9345C147.733 47.8756 147.722 47.8126 147.726 47.7495V46.0398C147.722 45.9765 147.732 45.9132 147.755 45.854C147.777 45.7948 147.811 45.7409 147.856 45.6961C147.901 45.6512 147.953 45.6162 148.013 45.5934C148.072 45.5706 148.135 45.5605 148.198 45.5638H153.224C153.286 45.5602 153.35 45.57 153.409 45.5927C153.469 45.6153 153.522 45.6502 153.567 45.6952C153.612 45.7401 153.646 45.7941 153.668 45.8535C153.692 45.9128 153.701 45.9763 153.698 46.0398L153.695 49.8496Z" fill="white"/>
<path fill-rule="evenodd" clip-rule="evenodd" d="M165.235 50.3145H172.707C172.77 50.3109 172.833 50.3207 172.892 50.3432C172.951 50.3657 173.004 50.4005 173.049 50.4451C173.094 50.4898 173.129 50.5435 173.151 50.6026C173.174 50.6616 173.185 50.7249 173.181 50.7882V52.4979C173.185 52.5613 173.174 52.6249 173.152 52.6842C173.13 52.7436 173.095 52.7975 173.05 52.8424C173.005 52.8874 172.951 52.9223 172.892 52.9449C172.833 52.9676 172.77 52.9775 172.707 52.9739H162.68C162.616 52.9775 162.553 52.9676 162.494 52.9449C162.435 52.9223 162.381 52.8874 162.337 52.8424C162.292 52.7975 162.257 52.7436 162.235 52.6842C162.212 52.6249 162.202 52.5613 162.206 52.4979V40.1505C162.202 40.0873 162.213 40.0241 162.235 39.965C162.258 39.9058 162.293 39.8522 162.337 39.8075C162.382 39.7628 162.436 39.7282 162.495 39.7055C162.553 39.6831 162.617 39.6734 162.68 39.6769H172.518C172.581 39.673 172.645 39.6825 172.704 39.7048C172.763 39.7273 172.817 39.7619 172.862 39.8066C172.907 39.8513 172.942 39.9051 172.965 39.9644C172.988 40.0236 172.998 40.0871 172.994 40.1505V41.8604C172.998 41.9238 172.988 41.9873 172.966 42.0467C172.943 42.1061 172.908 42.16 172.863 42.2049C172.819 42.2498 172.765 42.2847 172.706 42.3074C172.647 42.3301 172.584 42.3399 172.52 42.3363H165.235V44.8987H170.815C170.879 44.8951 170.942 44.9049 171.001 44.9276C171.06 44.9502 171.114 44.9851 171.158 45.0301C171.203 45.075 171.238 45.129 171.26 45.1883C171.283 45.2477 171.293 45.3112 171.289 45.3746V47.0844C171.293 47.1477 171.282 47.2108 171.26 47.27C171.237 47.3291 171.202 47.3827 171.158 47.4274C171.113 47.4721 171.059 47.5069 171 47.5293C170.942 47.5519 170.878 47.5617 170.815 47.5581H165.235V50.3145Z" fill="white"/>
<path fill-rule="evenodd" clip-rule="evenodd" d="M190.018 48.318V40.1504C190.015 40.0873 190.025 40.0242 190.048 39.9654C190.07 39.9064 190.104 39.8529 190.149 39.8082C190.194 39.7636 190.247 39.7287 190.306 39.7062C190.364 39.6835 190.427 39.6734 190.49 39.6766H192.573C192.636 39.6734 192.699 39.6835 192.757 39.7062C192.816 39.7287 192.869 39.7636 192.914 39.8082C192.958 39.8529 192.993 39.9064 193.015 39.9654C193.038 40.0242 193.047 40.0873 193.045 40.1504V52.4978C193.049 52.561 193.038 52.6242 193.016 52.6834C192.994 52.7427 192.959 52.7965 192.915 52.8414C192.87 52.8863 192.816 52.9212 192.758 52.9441C192.699 52.9668 192.636 52.9769 192.573 52.9737H190.018C189.641 52.9737 189.45 52.7841 189.261 52.4978L184.152 44.3301H183.964V52.4978C183.967 52.561 183.958 52.6242 183.935 52.6834C183.913 52.7427 183.878 52.7965 183.833 52.8414C183.789 52.8863 183.735 52.9212 183.676 52.9441C183.618 52.9668 183.555 52.9769 183.492 52.9737H181.409C181.346 52.9769 181.283 52.9668 181.225 52.9441C181.166 52.9212 181.111 52.8863 181.068 52.8414C181.023 52.7965 180.989 52.7427 180.966 52.6834C180.944 52.6242 180.934 52.561 180.938 52.4978V40.1504C180.934 40.0873 180.944 40.0242 180.966 39.9654C180.99 39.9064 181.024 39.8529 181.068 39.8082C181.112 39.7636 181.166 39.7287 181.225 39.7062C181.284 39.6835 181.346 39.6734 181.409 39.6766H183.964C184.343 39.6766 184.532 39.8662 184.72 40.1504L189.829 48.318H190.018Z" fill="white"/>
<path fill-rule="evenodd" clip-rule="evenodd" d="M204.774 50.3143H209.786C210.46 50.3143 210.829 49.9331 210.829 49.2677V43.3805C210.829 42.7151 210.449 42.3361 209.786 42.3361H204.774V50.3143ZM210.546 39.6768C212.721 39.6768 213.855 40.8045 213.855 42.9993V49.6489C213.855 51.8323 212.731 52.9737 210.546 52.9737H202.219C202.157 52.9773 202.093 52.9675 202.034 52.9448C201.974 52.9221 201.921 52.8872 201.877 52.8423C201.832 52.7974 201.797 52.7435 201.774 52.6841C201.751 52.6247 201.742 52.5612 201.746 52.4978V40.1504C201.742 40.0872 201.752 40.0239 201.774 39.9648C201.798 39.9057 201.833 39.852 201.878 39.8073C201.922 39.7627 201.975 39.7279 202.035 39.7054C202.094 39.683 202.157 39.6731 202.219 39.6768H210.546Z" fill="white"/>
<path fill-rule="evenodd" clip-rule="evenodd" d="M230.409 49.0781C230.409 48.6044 230.124 48.2999 229.558 48.1285L224.355 46.5134C222.84 46.0398 222.083 45.2796 222.083 43.6646V42.8096C222.083 40.6262 223.206 39.4849 225.394 39.4849H229.935C232.112 39.4849 233.246 40.6262 233.246 42.8096V43.7592C233.25 43.8227 233.24 43.8862 233.218 43.9456C233.195 44.0049 233.16 44.0588 233.116 44.1039C233.07 44.1487 233.017 44.1837 232.959 44.2064C232.9 44.2289 232.836 44.2389 232.772 44.2352H230.692C230.629 44.2389 230.566 44.2289 230.507 44.2064C230.448 44.1837 230.394 44.1487 230.349 44.1039C230.304 44.0588 230.269 44.0049 230.247 43.9456C230.224 43.8862 230.214 43.8227 230.218 43.7592V43.1909C230.218 42.5254 229.841 42.1443 229.178 42.1443H226.152C225.478 42.1443 225.111 42.5254 225.111 43.1909V43.3804C225.111 43.854 225.394 44.1586 225.96 44.33L231.167 45.945C232.678 46.4186 233.435 47.1788 233.435 48.7938V49.8496C233.435 52.033 232.312 53.1743 230.124 53.1743H225.119C222.941 53.1743 221.806 52.033 221.806 49.8496V48.8999C221.802 48.8366 221.813 48.7733 221.835 48.7141C221.857 48.655 221.892 48.6011 221.937 48.5562C221.981 48.5113 222.034 48.4763 222.094 48.4536C222.152 48.4308 222.215 48.4207 222.279 48.424H224.361C224.424 48.4207 224.488 48.4308 224.546 48.4536C224.605 48.4763 224.658 48.5113 224.702 48.5562C224.747 48.6011 224.782 48.655 224.804 48.7141C224.826 48.7733 224.836 48.8366 224.833 48.8999V49.4705C224.833 50.1338 225.213 50.5149 225.873 50.5149H229.375C230.036 50.5149 230.415 50.1338 230.415 49.4705L230.409 49.0781Z" fill="white"/>
<path fill-rule="evenodd" clip-rule="evenodd" d="M125.453 0L110.463 26.2331L114.531 30.3316L123.71 24.0677L118.117 24.0586L125.433 11.2534L132.708 24.0835L127.116 24.0744L136.27 30.37L140.355 26.2827L125.453 0Z" fill="white"/>
<path fill-rule="evenodd" clip-rule="evenodd" d="M9.91918 78.591V71.3933H5.37635V102.585H9.91918V92.9323H8.12176V87.5188H15.2955V104.436C15.2772 105.381 14.8905 106.281 14.2183 106.944C13.5461 107.605 12.6422 107.976 11.7007 107.976H3.59471C1.68276 107.976 0 106.356 0 104.436V69.5935C0.0211669 68.6431 0.406688 67.737 1.07629 67.0652C1.7459 66.3929 2.64798 66.0057 3.59471 65.9841H11.7098C12.1818 65.9841 12.6492 66.0776 13.0853 66.259C13.5215 66.4404 13.9178 66.7061 14.2516 67.0415C14.5854 67.3768 14.8502 67.7742 15.0308 68.2122C15.2115 68.6501 15.3044 69.1194 15.3044 69.5935V78.591H9.91918Z" fill="white"/>
<path fill-rule="evenodd" clip-rule="evenodd" d="M22.8237 65.9929H28.2V102.584H34.5335V107.982H22.8237V65.9929Z" fill="white"/>
<path fill-rule="evenodd" clip-rule="evenodd" d="M46.1847 102.584H50.7252V71.3928H46.1847V102.584ZM40.8061 69.593C40.8273 68.6426 41.2127 67.7365 41.8823 67.0647C42.552 66.3924 43.4541 66.0052 44.4008 65.9836H52.5271C53.4804 65.9836 54.3944 66.3643 55.069 67.041C55.743 67.7176 56.1219 68.6356 56.1219 69.593V104.436C56.1031 105.38 55.7161 106.28 55.0437 106.942C54.3719 107.602 53.468 107.973 52.5271 107.973H44.3918C42.4798 107.973 40.7971 106.353 40.7971 104.436L40.8061 69.593Z" fill="white"/>
<path fill-rule="evenodd" clip-rule="evenodd" d="M69.0094 102.584H73.55V89.0278H69.0094V102.584ZM69.0094 83.6369H72.8916V71.393H69.0094V83.6369ZM63.6309 66H74.6846C75.6381 66 76.5523 66.3802 77.2263 67.0568C77.9003 67.7339 78.2792 68.6519 78.2792 69.6088V83.1045C78.2792 84.6046 77.502 85.7435 76.4255 86.0367C78.039 86.3974 78.9349 88.0666 78.9349 89.5759V104.463C78.9167 105.405 78.5308 106.303 77.8611 106.964C77.1914 107.626 76.2906 107.997 75.3516 108H63.6309V66Z" fill="white"/>
<path fill-rule="evenodd" clip-rule="evenodd" d="M91.5935 94.3667H96.384L93.9815 71.3929L91.5935 94.3667ZM96.9704 99.764H90.991L90.1558 107.982H84.7816L89.1942 65.9929H98.7543L103.056 107.982H97.8056L96.9704 99.764Z" fill="white"/>
<path fill-rule="evenodd" clip-rule="evenodd" d="M109.16 65.9929H114.537V102.584H120.87V107.982H109.16V65.9929Z" fill="white"/>
<path fill-rule="evenodd" clip-rule="evenodd" d="M141.063 95.3251V102.584H145.603V89.0276H139.27C138.328 89.0276 137.424 88.6572 136.752 87.9951C136.08 87.3336 135.693 86.4334 135.675 85.4884V69.593C135.675 67.4929 137.11 65.9836 139.27 65.9836H147.396C149.418 65.9836 150.991 67.4838 150.991 69.5228V78.3405H145.603V71.3928H141.063V83.6298H147.396C148.347 83.6298 149.26 84.0083 149.934 84.6828C150.608 85.3572 150.987 86.2725 150.991 87.2272V104.436C150.972 105.381 150.585 106.281 149.913 106.943C149.241 107.604 148.337 107.975 147.396 107.975H139.27C137.358 107.975 135.675 106.356 135.675 104.436V95.3251H141.063Z" fill="white"/>
<path fill-rule="evenodd" clip-rule="evenodd" d="M172.37 107.982H158.507V65.9929H171.952V71.3929H163.886V82.9689H169.561V88.3667H163.886V102.584H172.37V107.982Z" fill="white"/>
<path fill-rule="evenodd" clip-rule="evenodd" d="M184.678 84.7693H188.562V71.3929H184.678V84.7693ZM189.218 90.1666H184.678V107.987H179.302V65.9929H190.353C191.306 65.9929 192.22 66.3736 192.894 67.0502C193.568 67.7269 193.948 68.6449 193.948 69.6023V84.2368C193.948 85.7369 193.171 86.878 192.097 87.169C193.709 87.5276 194.606 89.1989 194.606 90.7082V107.982H189.218V90.1666Z" fill="white"/>
<path fill-rule="evenodd" clip-rule="evenodd" d="M201.826 107.984H207.204V65.9929H201.826V107.984Z" fill="white"/>
<path fill-rule="evenodd" clip-rule="evenodd" d="M228.591 107.982H214.729V65.9929H228.174V71.3929H220.108V82.9689H225.783V88.3667H220.108V102.584H228.591V107.982Z" fill="white"/>
<path fill-rule="evenodd" clip-rule="evenodd" d="M240.898 95.3251V102.584H245.441V89.0276H239.108C238.166 89.0276 237.262 88.6572 236.59 87.9951C235.918 87.3336 235.532 86.4334 235.514 85.4884V69.593C235.514 67.4929 236.947 65.9836 239.108 65.9836H247.232C249.254 65.9836 250.826 67.4838 250.826 69.5228V78.3405H245.451V71.3928H240.907V83.6298H247.24C248.193 83.6298 249.105 84.0083 249.778 84.6828C250.452 85.3572 250.833 86.2725 250.836 87.2272V104.436C250.817 105.381 250.431 106.281 249.758 106.943C249.087 107.604 248.183 107.975 247.24 107.975H239.117C237.203 107.975 235.522 106.356 235.522 104.436V95.3251H240.898Z" fill="white"/>
<path fill-rule="evenodd" clip-rule="evenodd" d="M9.91918 78.5905V71.3928H5.37635V102.584H9.91918V92.9323H8.12176V87.5183H15.2955V104.436C15.2772 105.381 14.8905 106.281 14.2183 106.943C13.5461 107.604 12.6422 107.975 11.7007 107.975H3.59471C1.68276 107.975 0 106.356 0 104.436V69.593C0.0211669 68.6426 0.406688 67.7365 1.07629 67.0647C1.7459 66.3924 2.64798 66.0052 3.59471 65.9836H11.7098C12.1818 65.9836 12.6492 66.0771 13.0853 66.2585C13.5215 66.4399 13.9178 66.7056 14.2516 67.041C14.5854 67.3763 14.8502 67.7737 15.0308 68.2117C15.2115 68.6496 15.3044 69.1189 15.3044 69.593V78.5905H9.91918Z" fill="white"/>
<path fill-rule="evenodd" clip-rule="evenodd" d="M22.8237 65.9929H28.2V102.584H34.5335V107.982H22.8237V65.9929Z" fill="white"/>
<path fill-rule="evenodd" clip-rule="evenodd" d="M46.1847 102.584H50.7252V71.3928H46.1847V102.584ZM40.8061 69.593C40.8273 68.6426 41.2127 67.7365 41.8823 67.0647C42.552 66.3924 43.4541 66.0052 44.4008 65.9836H52.5271C53.4804 65.9836 54.3944 66.3643 55.069 67.041C55.743 67.7176 56.1219 68.6356 56.1219 69.593V104.436C56.1031 105.38 55.7161 106.28 55.0437 106.942C54.3719 107.602 53.468 107.973 52.5271 107.973H44.3918C42.4798 107.973 40.7971 106.353 40.7971 104.436L40.8061 69.593Z" fill="white"/>
<path fill-rule="evenodd" clip-rule="evenodd" d="M69.0094 102.584H73.55V89.0278H69.0094V102.584ZM69.0094 83.6369H72.8916V71.393H69.0094V83.6369ZM63.6309 66H74.6846C75.6381 66 76.5523 66.3802 77.2263 67.0568C77.9003 67.7339 78.2792 68.6519 78.2792 69.6088V83.1045C78.2792 84.6046 77.502 85.7435 76.4255 86.0367C78.039 86.3974 78.9349 88.0666 78.9349 89.5759V104.463C78.9167 105.405 78.5308 106.303 77.8611 106.964C77.1914 107.626 76.2906 107.997 75.3516 108H63.6309V66Z" fill="white"/>
<path fill-rule="evenodd" clip-rule="evenodd" d="M91.5935 94.3667H96.384L93.9815 71.3929L91.5935 94.3667ZM96.9704 99.764H90.991L90.1558 107.982H84.7816L89.1942 65.9929H98.7543L103.056 107.982H97.8056L96.9704 99.764Z" fill="white"/>
<path fill-rule="evenodd" clip-rule="evenodd" d="M109.16 65.9929H114.537V102.584H120.87V107.982H109.16V65.9929Z" fill="white"/>
<path fill-rule="evenodd" clip-rule="evenodd" d="M141.063 95.3251V102.584H145.603V89.0276H139.27C138.328 89.0276 137.424 88.6572 136.752 87.9951C136.08 87.3336 135.693 86.4334 135.675 85.4884V69.593C135.675 67.4929 137.11 65.9836 139.27 65.9836H147.396C149.418 65.9836 150.991 67.4838 150.991 69.5228V78.3405H145.603V71.3928H141.063V83.6298H147.396C148.347 83.6298 149.26 84.0083 149.934 84.6828C150.608 85.3572 150.987 86.2725 150.991 87.2272V104.436C150.972 105.381 150.585 106.281 149.913 106.943C149.241 107.604 148.337 107.975 147.396 107.975H139.27C137.358 107.975 135.675 106.356 135.675 104.436V95.3251H141.063Z" fill="white"/>
<path fill-rule="evenodd" clip-rule="evenodd" d="M172.37 107.982H158.507V65.9929H171.952V71.3929H163.886V82.9689H169.561V88.3667H163.886V102.584H172.37V107.982Z" fill="white"/>
<path fill-rule="evenodd" clip-rule="evenodd" d="M184.678 84.7693H188.562V71.3929H184.678V84.7693ZM189.218 90.1666H184.678V107.987H179.302V65.9929H190.353C191.306 65.9929 192.22 66.3736 192.894 67.0502C193.568 67.7269 193.948 68.6449 193.948 69.6023V84.2368C193.948 85.7369 193.171 86.878 192.097 87.169C193.709 87.5276 194.606 89.1989 194.606 90.7082V107.982H189.218V90.1666Z" fill="white"/>
<path fill-rule="evenodd" clip-rule="evenodd" d="M201.826 107.984H207.204V65.9929H201.826V107.984Z" fill="white"/>
<path fill-rule="evenodd" clip-rule="evenodd" d="M228.591 107.982H214.729V65.9929H228.174V71.3929H220.108V82.9689H225.783V88.3667H220.108V102.584H228.591V107.982Z" fill="white"/>
<path fill-rule="evenodd" clip-rule="evenodd" d="M240.898 95.3251V102.584H245.441V89.0276H239.108C238.166 89.0276 237.262 88.6572 236.59 87.9951C235.918 87.3336 235.532 86.4334 235.514 85.4884V69.593C235.514 67.4929 236.947 65.9836 239.108 65.9836H247.232C249.254 65.9836 250.826 67.4838 250.826 69.5228V78.3405H245.451V71.3928H240.907V83.6298H247.24C248.193 83.6298 249.105 84.0083 249.778 84.6828C250.452 85.3572 250.833 86.2725 250.836 87.2272V104.436C250.817 105.381 250.431 106.281 249.758 106.943C249.087 107.604 248.183 107.975 247.24 107.975H239.117C237.203 107.975 235.522 106.356 235.522 104.436V95.3251H240.898Z" fill="white"/>
<path d="M235.228 39.2998C235.239 39.3003 235.249 39.3049 235.256 39.3123C235.263 39.3198 235.268 39.3298 235.269 39.3404V39.4758C235.269 39.4868 235.264 39.4973 235.257 39.5053C235.25 39.5133 235.239 39.5181 235.228 39.5186H234.83V40.5766C234.83 40.5867 234.826 40.5965 234.819 40.6039C234.812 40.6114 234.803 40.6161 234.792 40.6171H234.653C234.643 40.6166 234.632 40.6121 234.625 40.6047C234.618 40.5971 234.614 40.5871 234.612 40.5766V39.5186H234.215C234.203 39.5181 234.194 39.5133 234.187 39.5053C234.179 39.4973 234.174 39.4868 234.174 39.4758V39.3404C234.175 39.3298 234.179 39.3198 234.187 39.3123C234.195 39.3049 234.204 39.3003 234.215 39.2998H235.228Z" fill="white"/>
<path d="M236.563 40.6172C236.549 40.6188 236.536 40.6156 236.525 40.6081C236.514 40.6007 236.506 40.5895 236.502 40.5766L236.125 39.7194H236.105V40.5766C236.104 40.5872 236.1 40.5972 236.093 40.6047C236.085 40.6123 236.074 40.6167 236.065 40.6172H235.925C235.915 40.6161 235.905 40.6115 235.899 40.604C235.892 40.5966 235.887 40.5869 235.887 40.5766V39.3406C235.887 39.3303 235.892 39.3206 235.899 39.3131C235.905 39.3056 235.915 39.3009 235.925 39.3H236.105C236.118 39.2983 236.131 39.3016 236.143 39.309C236.153 39.3164 236.161 39.3276 236.165 39.3406L236.602 40.3375H236.622L237.07 39.3406C237.074 39.3278 237.082 39.3167 237.093 39.3093C237.103 39.3017 237.117 39.2985 237.13 39.3H237.309C237.32 39.3005 237.329 39.3049 237.337 39.3124C237.345 39.3199 237.349 39.3299 237.349 39.3406V40.5766C237.349 40.5872 237.345 40.5972 237.337 40.6047C237.329 40.6123 237.32 40.6167 237.309 40.6172H237.17C237.16 40.6167 237.149 40.6123 237.141 40.6047C237.134 40.5972 237.13 40.5872 237.13 40.5766V39.7194H237.109L236.732 40.5766C236.728 40.5893 236.721 40.6005 236.71 40.608C236.699 40.6154 236.686 40.6188 236.674 40.6172H236.563Z" fill="white"/>
<path d="M235.228 39.2998C235.239 39.3003 235.249 39.3049 235.256 39.3123C235.263 39.3198 235.268 39.3298 235.269 39.3404V39.4758C235.269 39.4868 235.264 39.4973 235.257 39.5053C235.25 39.5133 235.239 39.5181 235.228 39.5186H234.83V40.5766C234.83 40.5867 234.826 40.5965 234.819 40.6039C234.812 40.6114 234.803 40.6161 234.792 40.6171H234.653C234.643 40.6166 234.632 40.6121 234.625 40.6047C234.618 40.5971 234.614 40.5871 234.612 40.5766V39.5186H234.215C234.203 39.5181 234.194 39.5133 234.187 39.5053C234.179 39.4973 234.174 39.4868 234.174 39.4758V39.3404C234.175 39.3298 234.179 39.3198 234.187 39.3123C234.195 39.3049 234.204 39.3003 234.215 39.2998H235.228Z" fill="white"/>
<path d="M236.563 40.6172C236.549 40.6188 236.536 40.6156 236.525 40.6081C236.514 40.6007 236.506 40.5895 236.502 40.5766L236.125 39.7194H236.105V40.5766C236.104 40.5872 236.1 40.5972 236.093 40.6047C236.085 40.6123 236.074 40.6167 236.065 40.6172H235.925C235.915 40.6161 235.905 40.6115 235.899 40.604C235.892 40.5966 235.887 40.5869 235.887 40.5766V39.3406C235.887 39.3303 235.892 39.3206 235.899 39.3131C235.905 39.3056 235.915 39.3009 235.925 39.3H236.105C236.118 39.2983 236.131 39.3016 236.143 39.309C236.153 39.3164 236.161 39.3276 236.165 39.3406L236.602 40.3375H236.622L237.07 39.3406C237.074 39.3278 237.082 39.3167 237.093 39.3093C237.103 39.3017 237.117 39.2985 237.13 39.3H237.309C237.32 39.3005 237.329 39.3049 237.337 39.3124C237.345 39.3199 237.349 39.3299 237.349 39.3406V40.5766C237.349 40.5872 237.345 40.5972 237.337 40.6047C237.329 40.6123 237.32 40.6167 237.309 40.6172H237.17C237.16 40.6167 237.149 40.6123 237.141 40.6047C237.134 40.5972 237.13 40.5872 237.13 40.5766V39.7194H237.109L236.732 40.5766C236.728 40.5893 236.721 40.6005 236.71 40.608C236.699 40.6154 236.686 40.6188 236.674 40.6172H236.563Z" fill="white"/>
</g>
<defs>
<clipPath id="clip0_1_955">
<rect width="251" height="108" fill="white"/>
</clipPath>
</defs>
</svg>
