<svg width="586" height="440" viewBox="0 0 586 440" fill="none" xmlns="http://www.w3.org/2000/svg">
<path d="M432.063 156.648H334.572C334.572 157.948 334.572 159.248 334.572 160.548C334.572 168.426 334.987 179.786 335.22 185.299H414.483C421.64 178.356 429.496 172.143 437.871 166.71L432.089 156.648H432.063Z" fill="white"/>
<path d="M396.357 193.952H335.97C337.915 203.961 344.268 213.268 352.306 217.22L355.184 218.623H388.371C391.975 212.435 396.02 206.534 400.402 200.945L396.357 193.952Z" fill="white"/>
<path d="M377.874 227.333H355.499V244.44H376.37C377.77 240.514 379.378 236.692 381.089 232.923L377.874 227.359V227.333Z" fill="white"/>
<path d="M253.054 160.548C253.054 159.248 253.054 157.948 253.054 156.648H155.538L149.756 166.71C158.156 172.143 165.986 178.383 173.143 185.299H252.406C252.613 179.838 253.054 168.452 253.054 160.548Z" fill="white"/>
<path d="M235.318 217.22C243.33 213.268 249.656 204.013 251.627 193.952H191.239L187.194 200.945C191.602 206.534 195.621 212.435 199.225 218.623H232.414L235.292 217.22H235.318Z" fill="white"/>
<path d="M232.128 242.412V227.333H209.752L206.537 232.897C208.248 236.666 209.856 240.488 211.256 244.414H232.128V242.412Z" fill="white"/>
<path d="M293.786 134.05L279.682 160.776C279.475 164.13 279.319 167.484 279.214 170.837V172.917L293.812 145.411L308.125 173.463V165.481C308.073 164.26 307.995 163.038 307.917 161.816L293.76 134.05H293.786Z" fill="white"/>
<path d="M282.869 131.814C282.273 135.531 281.754 139.353 281.288 143.201L293.811 121.805L306.387 144.163C305.946 140.315 305.452 136.52 304.857 132.776L293.759 113.017L282.843 131.788L282.869 131.814Z" fill="white"/>
<path d="M293.789 93.9839C291.87 98.9235 289.64 105.267 287.747 111.403L293.842 102.095L300.039 111.975C298.093 105.683 295.785 99.1055 293.816 93.9839H293.789Z" fill="white"/>
<path d="M287.044 191.659L293.812 179.699L300.579 191.659L308.15 205.074L308.124 193.999L293.786 163.243L279.24 193.453V205.464L287.044 191.659Z" fill="white"/>
<path d="M337.455 214.309C332.477 208.511 331.336 202.662 331.336 202.662L329.754 194.5L312.667 208.278L313.212 209.292C313.212 209.292 313.989 212.359 318.864 219.951C321.275 223.694 326.228 228.842 330.79 231.781C336.935 235.757 349.77 242.414 349.77 242.414V224.943C349.77 224.943 340.228 217.585 337.429 214.309H337.455Z" fill="white"/>
<path d="M257.876 194.5L256.295 202.688C256.295 202.688 255.154 208.511 250.175 214.335C247.375 217.585 237.833 224.969 237.833 224.969V242.438C237.833 242.438 250.668 235.783 256.813 231.807C261.351 228.868 266.329 223.72 268.74 219.977C273.615 212.385 274.393 209.318 274.393 209.318L274.937 208.278L257.85 194.5H257.876Z" fill="white"/>
<path d="M274.367 192.961V181.471C274.367 161.4 276.208 142.135 279.112 125.964C280.927 115.799 287.747 95.8066 291.688 86.8634V19.6064C290.78 20.0225 289.951 20.6985 289.38 21.6863C279.787 38.2471 258.136 77.088 258.136 96.7425C258.136 110.677 258.758 137.091 258.758 160.542C258.758 163.713 258.758 166.807 258.732 169.822L274.393 192.935L274.367 192.961Z" fill="white"/>
<path d="M329.592 96.7437C329.592 76.8292 307.943 38.2482 298.349 21.6875C297.753 20.6475 296.871 19.9717 295.912 19.5557V86.8385C299.853 95.7818 306.672 115.774 308.487 125.939C311.392 142.136 313.232 161.375 313.232 181.445V193.013L328.842 169.954C328.842 167.277 328.816 164.521 328.816 161.687C328.816 137.951 329.619 110.887 329.619 96.7177L329.592 96.7437Z" fill="white"/>
<path d="M313.207 203.159L329.101 189.172V188.964C329.024 186.26 328.972 183.271 328.92 180.125L313.207 199.025V203.159Z" fill="white"/>
<path d="M274.367 198.937L258.628 180.01C258.602 183.286 258.551 186.329 258.499 189.11L274.367 203.096V198.937Z" fill="white"/>
<path d="M293.786 134.05L279.682 160.776C279.475 164.13 279.319 167.484 279.214 170.837V172.917L293.812 145.411L308.125 173.463V165.481C308.073 164.26 307.995 163.038 307.917 161.816L293.76 134.05H293.786Z" fill="white"/>
<path d="M282.869 131.814C282.273 135.531 281.754 139.353 281.288 143.201L293.811 121.805L306.387 144.163C305.946 140.315 305.452 136.52 304.857 132.776L293.759 113.017L282.843 131.788L282.869 131.814Z" fill="white"/>
<path d="M293.789 93.9839C291.87 98.9235 289.64 105.267 287.747 111.403L293.842 102.095L300.039 111.975C298.093 105.683 295.785 99.1055 293.816 93.9839H293.789Z" fill="white"/>
<path d="M287.044 191.659L293.812 179.699L300.579 191.659L308.15 205.074L308.124 193.999L293.786 163.243L279.24 193.453V205.464L287.044 191.659Z" fill="white"/>
<path d="M320.264 269.834L298.665 254.651H312.174L293.817 223.192L275.459 254.651H288.968L267.371 269.834L257.646 259.512L293.817 195.479L329.986 259.512L320.264 269.834Z" fill="white"/>
<path d="M259.326 325.766L252.092 306.32L233.034 313.754L229.587 321.736L248.645 314.404L255.905 333.746L259.326 325.766Z" fill="white"/>
<path d="M354.747 313.754L335.688 306.32L328.455 325.766L331.904 333.746L339.138 314.404L358.196 321.736L354.747 313.754Z" fill="white"/>
<path d="M249.685 337.742L244.577 324.067L231.172 329.371L228.735 334.987L242.14 329.76L247.248 343.358L249.685 337.742Z" fill="white"/>
<path d="M356.614 329.371L343.209 324.067L338.101 337.742L340.538 343.358L345.646 329.76L359.05 334.987L356.614 329.371Z" fill="white"/>
<path d="M163.185 281.067L163.859 276.387L182.917 262.167L184.369 262.817L200.158 251.04L201.325 252.599L163.185 281.067Z" fill="white"/>
<path d="M155.249 301.117L155.949 296.436L196.424 266.254L197.876 266.904L213.665 255.127L214.832 256.686L155.249 301.117Z" fill="white"/>
<path d="M424.414 281.067L423.74 276.387L404.682 262.167L403.23 262.817L387.44 251.04L386.273 252.599L424.414 281.067Z" fill="white"/>
<path d="M432.351 301.117L431.651 296.412L391.176 266.254L389.724 266.904L373.935 255.127L372.768 256.686L432.351 301.117Z" fill="white"/>
<path d="M409.244 301.76L350.853 257.641L342.634 254.366L330.655 244.902L336.748 255.692L339.574 260.71L335.633 264.895L332.003 268.742L342.608 277.061L345.46 289.047L391.717 325.132L399.313 324.197L410.566 310.079L409.218 301.76H409.244ZM353.55 287.436L352.85 287.592C351.398 287.929 350.05 286.968 349.842 285.485L347.197 268.535C347.016 267.13 347.975 265.727 349.349 265.364L350.024 265.181C351.424 264.816 352.72 265.675 352.928 267.078L355.78 284.108C356.013 285.615 355.002 287.097 353.524 287.436H353.55ZM359.047 286.942L357.647 274.021C357.517 272.798 358.399 271.68 359.643 271.498L377.119 285.043C377.301 286.37 376.367 287.54 375.019 287.669L361.588 289.021C360.317 289.152 359.176 288.215 359.021 286.916L359.047 286.942ZM382.796 309.975L364.207 294.585C364.051 293.258 364.984 292.09 366.281 291.96L379.971 290.685C381.344 290.555 382.616 291.568 382.822 292.921L384.974 307.219C385.183 308.65 384.224 309.898 382.796 309.975ZM395.968 320.036L395.14 320.167C393.401 320.428 391.691 319.231 391.328 317.463L386.867 297.471C386.53 295.833 387.593 294.274 389.254 293.961L390.058 293.804C391.717 293.493 393.349 294.559 393.712 296.223L398.483 316.345C398.872 318.113 397.757 319.777 395.994 320.062L395.968 320.036Z" fill="white"/>
<path d="M251.967 264.895L248.026 260.71L250.852 255.692L256.919 244.928L244.992 254.366L236.773 257.641L178.382 301.76L177.034 310.079L188.287 324.197L195.884 325.132L242.14 289.047L244.992 277.062L255.597 268.768L251.941 264.895H251.967ZM200.759 297.471L196.299 317.463C195.936 319.23 194.225 320.452 192.486 320.167L191.658 320.036C189.893 319.776 188.78 318.086 189.167 316.319L193.938 296.197C194.301 294.559 195.936 293.467 197.594 293.778L198.398 293.935C200.059 294.246 201.122 295.806 200.785 297.445L200.759 297.471ZM204.828 309.975C203.402 309.897 202.417 308.649 202.65 307.219L204.802 292.921C205.01 291.568 206.28 290.555 207.656 290.685L221.345 291.958C222.641 292.088 223.575 293.258 223.419 294.585L204.828 309.975ZM228.579 286.94C228.449 288.241 227.283 289.176 226.012 289.047L212.581 287.695C211.233 287.564 210.299 286.394 210.481 285.07L227.957 271.524C229.201 271.68 230.083 272.798 229.953 274.047L228.553 286.966L228.579 286.94ZM237.784 285.485C237.576 286.966 236.228 287.93 234.776 287.591L234.076 287.436C232.624 287.097 231.613 285.615 231.82 284.108L234.672 267.078C234.88 265.675 236.176 264.843 237.576 265.182L238.251 265.362C239.651 265.727 240.61 267.131 240.403 268.534L237.758 285.485H237.784Z" fill="white"/>
<path d="M315.18 286.587V275.797L301.438 266.127C300.428 275.018 298.715 290.669 298.326 297.246C297.626 309.491 294.152 344.978 294.152 344.978C294.152 345.213 293.946 345.341 293.789 345.341C293.607 345.341 293.426 345.213 293.426 344.978C293.426 344.978 289.951 309.491 289.251 297.246C288.888 290.695 287.151 275.044 286.141 266.153L272.399 275.823V286.587C278.698 287.002 284.326 288.692 284.326 294.36C284.326 298.858 280.954 301.302 276.781 301.302C275.147 301.302 273.642 300.755 272.399 299.871V308.451L276.262 313.598C277.559 315.314 278.259 317.421 278.259 319.579V389.33C278.259 400.015 288.188 414.392 292.131 419.644C292.544 420.19 293.168 420.451 293.789 420.425C294.411 420.451 295.035 420.216 295.448 419.644C299.365 414.392 309.32 400.015 309.32 389.33V319.579C309.32 317.421 310.02 315.314 311.317 313.598L315.18 308.451V299.871C313.936 300.755 312.432 301.302 310.798 301.302C306.625 301.302 303.253 298.832 303.253 294.36C303.253 288.692 308.879 287.002 315.18 286.587Z" fill="white"/>
</svg>
