<svg width="108" height="72" viewBox="0 0 108 72" fill="none" xmlns="http://www.w3.org/2000/svg">
<g clip-path="url(#clip0_1_9)">
<path d="M43.7327 3.01633e-05H30.2352L28.6052 7.60091H30.2352V52.3528H38.1866V37.1511H43.7327C44.5932 37.1537 45.4458 36.9867 46.2416 36.6598C47.0374 36.3328 47.7607 35.8523 48.3701 35.2457C48.9795 34.6392 49.463 33.9185 49.7929 33.1251C50.1228 32.3316 50.2926 31.481 50.2926 30.6219V6.52925C50.2926 5.67015 50.1228 4.81949 49.7929 4.02603C49.463 3.23257 48.9795 2.51192 48.3701 1.90536C47.7607 1.29881 47.0374 0.818284 46.2416 0.49133C45.4458 0.164375 44.5932 -0.00258109 43.7327 3.01633e-05ZM42.3015 29.5502H38.3258V7.60091H42.3015V29.5502Z" fill="white"/>
<path d="M57.3098 7.60088H58.9597V52.3727H77.069V44.7519H66.931V29.9868H74.0673V22.3859H66.931V7.60088H77.069V0H58.9597L57.3098 7.60088Z" fill="white"/>
<path d="M102.076 24.3506L108 0H99.5715L95.894 16.4917L91.8984 0H85.6566L84.0066 7.60088H85.6566L89.7317 24.3506V28.0022L83.8079 52.3727H92.2165L95.894 35.8809L99.8896 52.3727H108L102.076 28.0022V24.3506Z" fill="white"/>
<path d="M17.3142 0H6.32137L2.34567 37.151H1.61016V37.3297L0 44.7519H1.61016L0.815019 52.3528H7.95141L8.62728 44.7519H15.0282L15.704 52.3528H22.8205L17.3142 0ZM9.26339 37.151L11.8078 7.60088L14.3722 37.151H9.26339Z" fill="white"/>
<path d="M19.4213 64.7563V66.4432H1.17282L0.815002 64.7563H19.4213Z" fill="white"/>
<path d="M89.3937 64.7563V66.4432H107.642L108 64.7563H89.3937Z" fill="white"/>
<path d="M34.1712 72H38.5246V70.3131H35.8609V66.4432H37.8487V64.7563H35.8609V60.5887H38.5246V58.9019H34.1712V72Z" fill="white"/>
<path d="M28.0088 60.5887V58.9019H26.3192V72H30.6725V70.3131H28.0088V60.5887Z" fill="white"/>
<path d="M46.1778 58.9019H43.6134C43.318 58.912 43.0378 59.035 42.8306 59.2455C42.6234 59.4561 42.5052 59.738 42.5002 60.0331V70.8886C42.5054 71.1818 42.6243 71.4615 42.8319 71.6688C43.0396 71.8762 43.3198 71.9949 43.6134 72H46.1778C46.4714 71.9949 46.7516 71.8762 46.9593 71.6688C47.1669 71.4615 47.2859 71.1818 47.291 70.8886V64.7563H45.0845L44.7266 66.4432H45.6013V70.4123H44.1899V60.688H45.6013V62.3748L47.291 61.9978V60.1323C47.3047 59.9773 47.2862 59.8211 47.2366 59.6735C47.1871 59.526 47.1076 59.3902 47.0031 59.2747C46.8986 59.1592 46.7714 59.0665 46.6294 59.0024C46.4874 58.9382 46.3336 58.904 46.1778 58.9019Z" fill="white"/>
<path d="M51.2667 72H55.6201V70.3131H52.9564V66.4432H54.9244V64.7563H52.9564V60.5887H55.6201V58.9019H51.2667V72Z" fill="white"/>
<path d="M63.2535 66.4432L61.1066 58.9019H59.5958V72H61.2656V64.7563L63.5119 72H64.9431V58.9019H63.2535V66.4432Z" fill="white"/>
<path d="M72.5964 58.9019H68.9188V72H72.5964C72.89 71.9949 73.1702 71.8762 73.3778 71.6688C73.5855 71.4615 73.7044 71.1818 73.7096 70.8886V60.0331C73.7096 59.7365 73.593 59.4517 73.3847 59.2401C73.1765 59.0285 72.8934 58.9071 72.5964 58.9019ZM72.0398 70.3131H70.6085V60.5887H72.0398V70.3131Z" fill="white"/>
<path d="M81.3628 64.7564H79.3749V60.5889H80.8062V62.2757L82.4959 61.8987V59.9141C82.4959 59.7665 82.4664 59.6203 82.4093 59.4842C82.3521 59.348 82.2683 59.2246 82.1628 59.1212C82.0573 59.0177 81.9323 58.9363 81.7949 58.8816C81.6575 58.8269 81.5106 58.8001 81.3628 58.8028H78.8183C78.668 58.7972 78.5182 58.8226 78.3782 58.8775C78.2382 58.9324 78.1111 59.0155 78.0047 59.1217C77.8984 59.2279 77.8151 59.3548 77.7602 59.4946C77.7052 59.6343 77.6797 59.7839 77.6853 59.934V65.2327C77.6905 65.5293 77.8121 65.812 78.0241 66.0198C78.236 66.2277 78.5212 66.3441 78.8183 66.3441H80.8062V70.3132H79.3749V68.547L77.6853 68.9042V70.8888C77.6954 71.1837 77.8186 71.4635 78.0295 71.6703C78.2404 71.8771 78.5228 71.9952 78.8183 72.0001H81.3628C81.6599 72.0002 81.9451 71.8837 82.157 71.6758C82.369 71.468 82.4906 71.1853 82.4959 70.8888V65.8877C82.4907 65.5892 82.3697 65.3045 82.1583 65.0934C81.9469 64.8824 81.6617 64.7616 81.3628 64.7564Z" fill="white"/>
<path d="M84.8614 59.1202H84.4638V58.9019H85.4776V59.1202H85.08V60.5887H84.8614V59.1202Z" fill="white"/>
<path d="M86.4915 60.5887V59.6758L86.3126 60.2315H86.1337L85.9746 59.6758V60.5887H85.7361V58.9019H85.9547L86.2132 59.7552L86.4915 58.9019H86.7101V60.5887H86.4915Z" fill="white"/>
</g>
<defs>
<clipPath id="clip0_1_9">
<rect width="108" height="72" fill="white"/>
</clipPath>
</defs>
</svg>
